<svg xmlns="http://www.w3.org/2000/svg" xmlns:xlink="http://www.w3.org/1999/xlink" width="680" height="108"><defs><path fill="#f0b913" d="M17-10L0-20h0l-17 10h0v20h0L0 20h0l17-10h0z" id="A"/><path id="B" d="M138.52 76V38.74h-8.22v-5.46h26.58v5.46h-8.16V76z"/><path id="C" d="M175.24 76V55.48h-5.76V76h-10.2V33.28h10.2V49.6h5.76V33.28h10.14V76z"/><path id="D" d="M189.82 76V33.28h22.5v5.82h-12.3v10.74h11.94v5.64h-11.94v14.64h12.36V76z"/><path id="E" d="m259.78 40.96q0-2.52 1.02-4.26t2.76-2.76q1.8-1.02 4.2-1.44 2.46-0.48 5.28-0.48 2.76 0 5.16 0.48 2.4 0.42 4.14 1.5 1.8 1.02 2.82 2.76 1.02 1.68 1.02 4.26v27.3q0 2.58-1.02 4.32-1.02 1.68-2.82 2.76-1.74 1.02-4.14 1.44-2.4 0.48-5.16 0.48-2.82 0-5.28-0.48-2.4-0.42-4.2-1.44-1.74-1.02-2.76-2.76t-1.02-4.26zm16.26-0.84q0-2.7-3-2.7t-3 2.7v29.1q0 2.7 3 2.7t3-2.7z"/><path id="F" d="M306.28 76V40.12q0-2.7-3-2.7-3 0-3 2.7V76h-10.26V40.96q0-2.52 1.02-4.26 1.02-1.74 2.76-2.76 1.8-1.02 4.2-1.44 2.46-.48 5.28-.48 2.76 0 5.16.48 2.4.42 4.14 1.5 1.8 1.02 2.82 2.76 1.02 1.68 1.02 4.26V76z"/></defs><use xlink:href="#A" x="54" y="54"/><use xlink:href="#A" x="90" y="54"/><use xlink:href="#A" x="18" y="54"/><use xlink:href="#A" x="72" y="86"/><use xlink:href="#A" x="36" y="86"/><use xlink:href="#A" x="72" y="22"/><use xlink:href="#A" x="36" y="22"/><g fill="#fff"><use xlink:href="#B"/><use xlink:href="#C"/><use xlink:href="#D"/><use xlink:href="#C" x="70.38"/><use xlink:href="#E"/><use xlink:href="#F"/><use xlink:href="#D" x="130.86"/><path d="M354.22 76V59.98l-9.42-26.7h10.38l5.1 18.36 5.04-18.36h9.24l-9.9 26.7V76z"/><use xlink:href="#F" x="86.7"/><use xlink:href="#D" x="217.56"/><use xlink:href="#B" x="301.38"/><path d="M474.1 76V40.96q0-2.52 1.02-4.26 1.02-1.74 2.76-2.76 1.8-1.02 4.2-1.44 2.46-.48 5.28-.48 2.76 0 5.1.48 2.34.42 4.02 1.5 1.74 1.02 2.7 2.76 1.02 1.68 1.02 4.26V51.7q0 2.16-.78 4.02-.78 1.8-2.28 3.12-1.5 1.32-3.72 2.1-2.22.72-5.1.72-1.8 0-3.96-.36V76zm16.26-35.88q0-2.7-3-2.7-3 0-3 2.7v15.96h2.16q1.56 0 2.7-.9 1.14-.96 1.14-2.88zM519.28 76V61.24q0-4.08-3.78-4.08h-2.22V76h-10.26V40.96q0-2.52 1.02-4.26 1.02-1.74 2.76-2.76 1.8-1.02 4.2-1.44 2.46-.48 5.28-.48 2.76 0 5.04.48 2.28.42 3.96 1.5 1.68 1.02 2.58 2.76.96 1.68.96 4.26v6.96q0 3.06-1.68 4.74-1.68 1.62-5.58 1.92 3.9.36 5.7 1.8 1.86 1.44 1.86 3.96V76zm0-35.88q0-2.7-3-2.7-3 0-3 2.7v12.24h2.22q1.8 0 2.76-.84 1.02-.9 1.02-3z"/><use xlink:href="#E" x="273.18"/><path d="m577.96 33.28h10.26v35.1q0 2.52-1.02 4.26t-2.82 2.76q-1.74 1.02-4.2 1.44-2.4 0.48-5.22 0.48-2.76 0-5.04-0.48-2.28-0.42-3.96-1.44-1.62-1.08-2.52-2.76-0.9-1.74-0.9-4.32v-8.94h9.42v9.84q0 2.7 3 2.7t3-2.7z"/><use xlink:href="#D" x="402.66"/><path d="m634.54 59.38h9.42v8.94q0 2.58-0.9 4.32-0.9 1.68-2.58 2.76-1.62 1.02-3.9 1.44-2.28 0.48-5.04 0.48-2.82 0-5.28-0.48-2.4-0.42-4.2-1.44-1.74-1.02-2.76-2.76t-1.02-4.26v-27.42q0-2.52 1.02-4.26t2.76-2.76q1.8-1.02 4.2-1.44 2.46-0.48 5.28-0.48 2.76 0 5.04 0.48 2.28 0.42 3.9 1.5 1.68 1.02 2.58 2.76 0.9 1.68 0.9 4.26v8.04h-9.42v-8.94q0-2.7-3-2.7t-3 2.7v29.1q0 2.7 3 2.7t3-2.7z"/><use xlink:href="#B" x="514.68"/></g></svg>